{
  "source": "C:\\Users\\Peter\\Desktop\\stuff\\MIUN\\quantitative_research\\video_compression\\videos\\UVG\\Beauty_1920x1080_120fps_420_8bit_YUV.y4m",
  "output": "C:\\Users\\Peter\\Desktop\\stuff\\MIUN\\quantitative_research\\video_compression\\compressed_videos\\UVG\\vp9\\4\\Beauty_1920x1080_120fps_420_8bit_YUV_vp9.webm",
  "codec": "vp9",
  "ok": "[yuv4mpegpipe @ 00000151c71b52c0] Stream #0: not enough frames to estimate rate; consider increasing probesize\nInput #0, yuv4mpegpipe, from 'C:\\Users\\Peter\\Desktop\\stuff\\MIUN\\quantitative_research\\video_compression\\videos\\UVG\\Beauty_1920x1080_120fps_420_8bit_YUV.y4m':\n  Duration: 00:00:05.00, start: 0.000000, bitrate: 2985989 kb/s\n  Stream #0:0: Video: rawvideo (I420 / 0x30323449), yuv420p(progressive), 1920x1080, 120 fps, 120 tbr, 120 tbn\n[out#0/webm @ 00000151c71b9b80] Codec AVOption b:a (set bitrate (in bits/s)) has not been used for any stream. The most likely reason is either wrong type (e.g. a video option with no video streams) or that it is a private option of some decoder which was not actually used for any stream.\nStream mapping:\n  Stream #0:0 -> #0:0 (rawvideo (native) -> vp9 (libvpx-vp9))\nPress [q] to stop, [?] for help\n[libvpx-vp9 @ 00000151c71bcec0] v1.15.2-100-g40561f514\nOutput #0, webm, to 'C:\\Users\\Peter\\Desktop\\stuff\\MIUN\\quantitative_research\\video_compression\\compressed_videos\\UVG\\vp9\\4\\Beauty_1920x1080_120fps_420_8bit_YUV_vp9.webm':\n  Metadata:\n    encoder         : Lavf62.3.100\n  Stream #0:0: Video: vp9, yuv420p(tv, progressive), 1920x1080, q=2-31, 4000 kb/s, 120 fps, 1k tbn\n    Metadata:\n      encoder         : Lavc62.11.100 libvpx-vp9\n    Side data:\n      cpb: bitrate max/min/avg: 0/0/0 buffer size: 4000000 vbv_delay: N/A\nframe=    0 fps=0.0 q=0.0 size=       0KiB time=N/A bitrate=N/A speed=N/A elapsed=0:00:00.50    \nframe=    3 fps=2.9 q=60.0 size=       0KiB time=00:00:00.02 bitrate= 153.9kbits/s speed=0.0245x elapsed=0:00:01.02    \nframe=    6 fps=3.9 q=47.0 size=       0KiB time=00:00:00.05 bitrate=  77.0kbits/s speed=0.0326x elapsed=0:00:01.53    \nframe=   10 fps=4.9 q=44.0 size=       0KiB time=00:00:00.08 bitrate=  46.2kbits/s speed=0.0405x elapsed=0:00:02.05    \nframe=   13 fps=5.1 q=44.0 size=       0KiB time=00:00:00.10 bitrate=  35.5kbits/s speed=0.0422x elapsed=0:00:02.57    \nframe=   15 fps=4.8 q=45.0 size=       0KiB time=00:00:00.12 bitrate=  30.8kbits/s speed=0.04x elapsed=0:00:03.12    \nframe=   18 fps=4.9 q=45.0 size=       0KiB time=00:00:00.15 bitrate=  25.7kbits/s speed=0.0409x elapsed=0:00:03.67    \nframe=   21 fps=5.0 q=46.0 size=       0KiB time=00:00:00.17 bitrate=  22.0kbits/s speed=0.0413x elapsed=0:00:04.23    \nframe=   24 fps=5.0 q=47.0 size=       0KiB time=00:00:00.20 bitrate=  19.2kbits/s speed=0.0415x elapsed=0:00:04.82    \nframe=   27 fps=5.0 q=47.0 size=       0KiB time=00:00:00.22 bitrate=  17.1kbits/s speed=0.0419x elapsed=0:00:05.37    \nframe=   30 fps=5.0 q=47.0 size=       0KiB time=00:00:00.25 bitrate=  15.4kbits/s speed=0.0417x elapsed=0:00:05.99    \nframe=   32 fps=4.8 q=47.0 size=       0KiB time=00:00:00.26 bitrate=  14.4kbits/s speed=0.0398x elapsed=0:00:06.70    \nframe=   34 fps=4.7 q=46.0 size=       0KiB time=00:00:00.28 bitrate=  13.6kbits/s speed=0.0393x elapsed=0:00:07.21    \nframe=   38 fps=4.9 q=45.0 size=       0KiB time=00:00:00.31 bitrate=  12.2kbits/s speed=0.041x elapsed=0:00:07.73    \nframe=   41 fps=5.0 q=45.0 size=       0KiB time=00:00:00.34 bitrate=  11.3kbits/s speed=0.0414x elapsed=0:00:08.24    \nframe=   45 fps=5.1 q=45.0 size=       0KiB time=00:00:00.37 bitrate=  10.3kbits/s speed=0.0428x elapsed=0:00:08.75    \nframe=   48 fps=5.2 q=45.0 size=       0KiB time=00:00:00.40 bitrate=   9.6kbits/s speed=0.0431x elapsed=0:00:09.27    \nframe=   51 fps=5.2 q=45.0 size=       0KiB time=00:00:00.42 bitrate=   9.1kbits/s speed=0.0434x elapsed=0:00:09.78    \nframe=   54 fps=5.2 q=45.0 size=       0KiB time=00:00:00.45 bitrate=   8.6kbits/s speed=0.0437x elapsed=0:00:10.30    \nframe=   57 fps=5.3 q=45.0 size=       0KiB time=00:00:00.47 bitrate=   8.1kbits/s speed=0.0439x elapsed=0:00:10.81    \nframe=   60 fps=5.3 q=45.0 size=       0KiB time=00:00:00.50 bitrate=   7.7kbits/s speed=0.0441x elapsed=0:00:11.33    \nframe=   60 fps=5.1 q=45.0 size=       0KiB time=00:00:00.50 bitrate=   7.7kbits/s speed=0.0422x elapsed=0:00:11.85    \nframe=   63 fps=5.1 q=43.0 size=       0KiB time=00:00:00.52 bitrate=   7.3kbits/s speed=0.0424x elapsed=0:00:12.37    \nframe=   65 fps=5.0 q=42.0 size=       0KiB time=00:00:00.54 bitrate=   7.1kbits/s speed=0.042x elapsed=0:00:12.88    \nframe=   68 fps=5.1 q=43.0 size=       0KiB time=00:00:00.56 bitrate=   6.8kbits/s speed=0.0423x elapsed=0:00:13.39    \nframe=   70 fps=5.0 q=43.0 size=       0KiB time=00:00:00.58 bitrate=   6.6kbits/s speed=0.0419x elapsed=0:00:13.91    \nframe=   73 fps=5.1 q=43.0 size=       0KiB time=00:00:00.60 bitrate=   6.3kbits/s speed=0.0421x elapsed=0:00:14.43    \nframe=   75 fps=5.0 q=44.0 size=       0KiB time=00:00:00.62 bitrate=   6.2kbits/s speed=0.0418x elapsed=0:00:14.95    \nframe=   75 fps=4.9 q=44.0 size=       0KiB time=00:00:00.62 bitrate=   6.2kbits/s speed=0.0404x elapsed=0:00:15.45    \nframe=   78 fps=4.9 q=45.0 size=       0KiB time=00:00:00.65 bitrate=   5.9kbits/s speed=0.0407x elapsed=0:00:15.98    \nframe=   81 fps=4.9 q=45.0 size=       0KiB time=00:00:00.67 bitrate=   5.7kbits/s speed=0.0409x elapsed=0:00:16.48    \nframe=   84 fps=4.9 q=45.0 size=       0KiB time=00:00:00.70 bitrate=   5.5kbits/s speed=0.0412x elapsed=0:00:17.01    \nframe=   86 fps=4.9 q=45.0 size=       0KiB time=00:00:00.71 bitrate=   5.4kbits/s speed=0.0409x elapsed=0:00:17.51    \nframe=   89 fps=4.9 q=45.0 size=       0KiB time=00:00:00.74 bitrate=   5.2kbits/s speed=0.0411x elapsed=0:00:18.03    \nframe=   90 fps=4.8 q=45.0 size=       0KiB time=00:00:00.75 bitrate=   5.1kbits/s speed=0.0404x elapsed=0:00:18.56    \nframe=   90 fps=4.7 q=45.0 size=       0KiB time=00:00:00.75 bitrate=   5.1kbits/s speed=0.0393x elapsed=0:00:19.06    \nframe=   93 fps=4.7 q=44.0 size=       0KiB time=00:00:00.77 bitrate=   5.0kbits/s speed=0.0396x elapsed=0:00:19.58    \nframe=   95 fps=4.7 q=44.0 size=       0KiB time=00:00:00.79 bitrate=   4.9kbits/s speed=0.0394x elapsed=0:00:20.10    \nframe=   98 fps=4.8 q=45.0 size=       0KiB time=00:00:00.81 bitrate=   4.7kbits/s speed=0.0396x elapsed=0:00:20.61    \nframe=  101 fps=4.8 q=45.0 size=       0KiB time=00:00:00.84 bitrate=   4.6kbits/s speed=0.0398x elapsed=0:00:21.13    \nframe=  102 fps=4.7 q=45.0 size=       0KiB time=00:00:00.85 bitrate=   4.5kbits/s speed=0.0393x elapsed=0:00:21.65    \nframe=  105 fps=4.7 q=46.0 size=       0KiB time=00:00:00.87 bitrate=   4.4kbits/s speed=0.0395x elapsed=0:00:22.15    \nframe=  107 fps=4.7 q=47.0 size=       0KiB time=00:00:00.89 bitrate=   4.3kbits/s speed=0.0393x elapsed=0:00:22.67    \nframe=  109 fps=4.7 q=46.0 size=       0KiB time=00:00:00.90 bitrate=   4.2kbits/s speed=0.0392x elapsed=0:00:23.19    \nframe=  112 fps=4.7 q=46.0 size=       0KiB time=00:00:00.93 bitrate=   4.1kbits/s speed=0.0394x elapsed=0:00:23.71    \nframe=  113 fps=4.7 q=46.0 size=       0KiB time=00:00:00.94 bitrate=   4.1kbits/s speed=0.0389x elapsed=0:00:24.22    \nframe=  115 fps=4.6 q=47.0 size=       0KiB time=00:00:00.95 bitrate=   4.0kbits/s speed=0.0387x elapsed=0:00:24.74    \nframe=  116 fps=4.6 q=47.0 size=       0KiB time=00:00:00.96 bitrate=   4.0kbits/s speed=0.0383x elapsed=0:00:25.25    \nframe=  119 fps=4.6 q=46.0 size=       0KiB time=00:00:00.99 bitrate=   3.9kbits/s speed=0.0385x elapsed=0:00:25.76    \nframe=  122 fps=4.6 q=46.0 size=       0KiB time=00:00:01.01 bitrate=   3.8kbits/s speed=0.0387x elapsed=0:00:26.28    \nframe=  124 fps=4.6 q=46.0 size=       0KiB time=00:00:01.03 bitrate=   3.7kbits/s speed=0.0386x elapsed=0:00:26.80    \nframe=  127 fps=4.6 q=46.0 size=       0KiB time=00:00:01.05 bitrate=   3.6kbits/s speed=0.0387x elapsed=0:00:27.31    \nframe=  128 fps=4.6 q=45.0 size=       0KiB time=00:00:01.06 bitrate=   3.6kbits/s speed=0.0383x elapsed=0:00:27.83    \nframe=  132 fps=4.7 q=43.0 size=     256KiB time=00:00:01.10 bitrate=1906.5kbits/s speed=0.0388x elapsed=0:00:28.34    \nframe=  135 fps=4.7 q=44.0 size=     256KiB time=00:00:01.12 bitrate=1864.1kbits/s speed=0.039x elapsed=0:00:28.86    \nframe=  139 fps=4.7 q=43.0 size=     256KiB time=00:00:01.15 bitrate=1810.5kbits/s speed=0.0394x elapsed=0:00:29.37    \nframe=  143 fps=4.8 q=44.0 size=     256KiB time=00:00:01.19 bitrate=1759.8kbits/s speed=0.0399x elapsed=0:00:29.90    \nframe=  145 fps=4.8 q=45.0 size=     256KiB time=00:00:01.20 bitrate=1735.6kbits/s speed=0.0397x elapsed=0:00:30.41    \nframe=  149 fps=4.8 q=43.0 size=     256KiB time=00:00:01.24 bitrate=1689.0kbits/s speed=0.0401x elapsed=0:00:30.92    \nframe=  152 fps=4.8 q=42.0 size=     256KiB time=00:00:01.26 bitrate=1655.6kbits/s speed=0.0403x elapsed=0:00:31.44    \nframe=  155 fps=4.8 q=41.0 size=     256KiB time=00:00:01.29 bitrate=1623.6kbits/s speed=0.0404x elapsed=0:00:31.95    \nframe=  158 fps=4.9 q=41.0 size=     256KiB time=00:00:01.31 bitrate=1592.8kbits/s speed=0.0405x elapsed=0:00:32.47    \nframe=  158 fps=4.8 q=41.0 size=     256KiB time=00:00:01.31 bitrate=1592.8kbits/s speed=0.0399x elapsed=0:00:32.98    \nframe=  162 fps=4.8 q=41.0 size=     256KiB time=00:00:01.35 bitrate=1553.4kbits/s speed=0.0403x elapsed=0:00:33.50    \nframe=  165 fps=4.8 q=43.0 size=     256KiB time=00:00:01.37 bitrate=1525.2kbits/s speed=0.0404x elapsed=0:00:34.02    \nframe=  169 fps=4.9 q=45.0 size=     256KiB time=00:00:01.40 bitrate=1489.1kbits/s speed=0.0408x elapsed=0:00:34.53    \nframe=  173 fps=4.9 q=44.0 size=     256KiB time=00:00:01.44 bitrate=1454.7kbits/s speed=0.0411x elapsed=0:00:35.06    \nframe=  175 fps=4.9 q=45.0 size=     256KiB time=00:00:01.45 bitrate=1438.0kbits/s speed=0.041x elapsed=0:00:35.57    \nframe=  180 fps=5.0 q=43.0 size=     256KiB time=00:00:01.50 bitrate=1398.1kbits/s speed=0.0416x elapsed=0:00:36.07    \nframe=  183 fps=5.0 q=43.0 size=     256KiB time=00:00:01.52 bitrate=1375.2kbits/s speed=0.0417x elapsed=0:00:36.59    \nframe=  187 fps=5.0 q=43.0 size=     256KiB time=00:00:01.55 bitrate=1345.8kbits/s speed=0.042x elapsed=0:00:37.11    \nframe=  188 fps=5.0 q=43.0 size=     256KiB time=00:00:01.56 bitrate=1338.6kbits/s speed=0.0416x elapsed=0:00:37.63    \nframe=  192 fps=5.0 q=41.0 size=     256KiB time=00:00:01.60 bitrate=1310.7kbits/s speed=0.0419x elapsed=0:00:38.14    \nframe=  196 fps=5.1 q=41.0 size=     256KiB time=00:00:01.63 bitrate=1284.0kbits/s speed=0.0422x elapsed=0:00:38.66    \nframe=  200 fps=5.1 q=43.0 size=     256KiB time=00:00:01.66 bitrate=1258.3kbits/s speed=0.0425x elapsed=0:00:39.17    \nframe=  203 fps=5.1 q=44.0 size=     256KiB time=00:00:01.69 bitrate=1239.7kbits/s speed=0.0426x elapsed=0:00:39.69    \nframe=  205 fps=5.1 q=43.0 size=     256KiB time=00:00:01.70 bitrate=1227.6kbits/s speed=0.0425x elapsed=0:00:40.20    \nframe=  208 fps=5.1 q=44.0 size=     256KiB time=00:00:01.73 bitrate=1209.9kbits/s speed=0.0426x elapsed=0:00:40.73    \nframe=  212 fps=5.1 q=45.0 size=     256KiB time=00:00:01.76 bitrate=1187.1kbits/s speed=0.0428x elapsed=0:00:41.23    \nframe=  215 fps=5.1 q=45.0 size=     256KiB time=00:00:01.79 bitrate=1170.5kbits/s speed=0.0429x elapsed=0:00:41.76    \nframe=  218 fps=5.2 q=46.0 size=     256KiB time=00:00:01.81 bitrate=1154.4kbits/s speed=0.043x elapsed=0:00:42.27    \nframe=  220 fps=5.1 q=46.0 size=     256KiB time=00:00:01.83 bitrate=1143.9kbits/s speed=0.0428x elapsed=0:00:42.78    \nframe=  224 fps=5.2 q=45.0 size=     256KiB time=00:00:01.86 bitrate=1123.5kbits/s speed=0.0431x elapsed=0:00:43.29    \nframe=  227 fps=5.2 q=45.0 size=     256KiB time=00:00:01.89 bitrate=1108.6kbits/s speed=0.0432x elapsed=0:00:43.81    \nframe=  231 fps=5.2 q=46.0 size=     256KiB time=00:00:01.92 bitrate=1089.4kbits/s speed=0.0434x elapsed=0:00:44.33    \nframe=  233 fps=5.2 q=46.0 size=     256KiB time=00:00:01.94 bitrate=1080.1kbits/s speed=0.0433x elapsed=0:00:44.85    \nframe=  237 fps=5.2 q=45.0 size=     256KiB time=00:00:01.97 bitrate=1061.8kbits/s speed=0.0435x elapsed=0:00:45.36    \nframe=  241 fps=5.3 q=45.0 size=     256KiB time=00:00:02.00 bitrate=1044.2kbits/s speed=0.0438x elapsed=0:00:45.88    \nframe=  244 fps=5.3 q=45.0 size=     256KiB time=00:00:02.03 bitrate=1031.4kbits/s speed=0.0438x elapsed=0:00:46.39    \nframe=  246 fps=5.2 q=46.0 size=     256KiB time=00:00:02.05 bitrate=1023.0kbits/s speed=0.0437x elapsed=0:00:46.91    \nframe=  250 fps=5.3 q=44.0 size=     256KiB time=00:00:02.08 bitrate=1006.6kbits/s speed=0.0439x elapsed=0:00:47.43    \nframe=  254 fps=5.3 q=44.0 size=     256KiB time=00:00:02.11 bitrate= 990.8kbits/s speed=0.0442x elapsed=0:00:47.93    \nframe=  256 fps=5.3 q=44.0 size=     256KiB time=00:00:02.13 bitrate= 983.0kbits/s speed=0.044x elapsed=0:00:48.45    \nframe=  259 fps=5.3 q=42.0 size=     768KiB time=00:00:02.15 bitrate=2915.0kbits/s speed=0.0441x elapsed=0:00:48.96    \nframe=  264 fps=5.3 q=43.0 size=     768KiB time=00:00:02.20 bitrate=2859.8kbits/s speed=0.0445x elapsed=0:00:49.48    \nframe=  268 fps=5.4 q=46.0 size=     768KiB time=00:00:02.23 bitrate=2817.1kbits/s speed=0.0447x elapsed=0:00:50.00    \nframe=  271 fps=5.4 q=46.0 size=     768KiB time=00:00:02.25 bitrate=2785.9kbits/s speed=0.0447x elapsed=0:00:50.51    \nframe=  274 fps=5.4 q=47.0 size=     768KiB time=00:00:02.28 bitrate=2755.4kbits/s speed=0.0447x elapsed=0:00:51.03    \nframe=  277 fps=5.4 q=50.0 size=     768KiB time=00:00:02.30 bitrate=2725.5kbits/s speed=0.0448x elapsed=0:00:51.55    \nframe=  281 fps=5.4 q=50.0 size=     768KiB time=00:00:02.34 bitrate=2686.7kbits/s speed=0.045x elapsed=0:00:52.07    \nframe=  284 fps=5.4 q=50.0 size=     768KiB time=00:00:02.36 bitrate=2658.4kbits/s speed=0.045x elapsed=0:00:52.59    \nframe=  286 fps=5.4 q=49.0 size=     768KiB time=00:00:02.38 bitrate=2639.8kbits/s speed=0.0449x elapsed=0:00:53.09    \nframe=  290 fps=5.4 q=46.0 size=     768KiB time=00:00:02.41 bitrate=2603.4kbits/s speed=0.0451x elapsed=0:00:53.61    \nframe=  294 fps=5.4 q=45.0 size=     768KiB time=00:00:02.45 bitrate=2567.9kbits/s speed=0.0453x elapsed=0:00:54.13    \nframe=  298 fps=5.5 q=44.0 size=     768KiB time=00:00:02.48 bitrate=2533.5kbits/s speed=0.0454x elapsed=0:00:54.64    \nframe=  301 fps=5.5 q=43.0 size=     768KiB time=00:00:02.50 bitrate=2508.2kbits/s speed=0.0455x elapsed=0:00:55.15    \nframe=  303 fps=5.4 q=44.0 size=     768KiB time=00:00:02.52 bitrate=2491.7kbits/s speed=0.0454x elapsed=0:00:55.67    \nframe=  306 fps=5.4 q=43.0 size=     768KiB time=00:00:02.55 bitrate=2467.2kbits/s speed=0.0454x elapsed=0:00:56.19    \nframe=  310 fps=5.5 q=43.0 size=     768KiB time=00:00:02.58 bitrate=2435.4kbits/s speed=0.0456x elapsed=0:00:56.70    \nframe=  314 fps=5.5 q=43.0 size=     768KiB time=00:00:02.61 bitrate=2404.4kbits/s speed=0.0457x elapsed=0:00:57.22    \nframe=  316 fps=5.5 q=44.0 size=     768KiB time=00:00:02.63 bitrate=2389.2kbits/s speed=0.0456x elapsed=0:00:57.73    \nframe=  317 fps=5.4 q=23.0 size=     768KiB time=00:00:02.64 bitrate=2381.6kbits/s speed=0.0453x elapsed=0:00:58.25    \nframe=  321 fps=5.5 q=44.0 size=     768KiB time=00:00:02.67 bitrate=2351.9kbits/s speed=0.0455x elapsed=0:00:58.76    \nframe=  326 fps=5.5 q=45.0 size=     768KiB time=00:00:02.71 bitrate=2315.9kbits/s speed=0.0458x elapsed=0:00:59.28    \nframe=  330 fps=5.5 q=46.0 size=     768KiB time=00:00:02.75 bitrate=2287.8kbits/s speed=0.046x elapsed=0:00:59.80    \nframe=  331 fps=5.5 q=46.0 size=     768KiB time=00:00:02.75 bitrate=2280.9kbits/s speed=0.0457x elapsed=0:01:00.32    \nframe=  335 fps=5.5 q=45.0 size=     768KiB time=00:00:02.79 bitrate=2253.7kbits/s speed=0.0459x elapsed=0:01:00.83    \nframe=  339 fps=5.5 q=45.0 size=     768KiB time=00:00:02.82 bitrate=2227.1kbits/s speed=0.046x elapsed=0:01:01.35    \nframe=  343 fps=5.5 q=45.0 size=     768KiB time=00:00:02.85 bitrate=2201.1kbits/s speed=0.0462x elapsed=0:01:01.86    \nframe=  346 fps=5.5 q=44.0 size=     768KiB time=00:00:02.88 bitrate=2182.0kbits/s speed=0.0462x elapsed=0:01:02.38    \nframe=  346 fps=5.5 q=44.0 size=     768KiB time=00:00:02.88 bitrate=2182.0kbits/s speed=0.0458x elapsed=0:01:02.90    \nframe=  350 fps=5.5 q=44.0 size=     768KiB time=00:00:02.91 bitrate=2157.1kbits/s speed=0.046x elapsed=0:01:03.41    \nframe=  354 fps=5.5 q=46.0 size=     768KiB time=00:00:02.95 bitrate=2132.7kbits/s speed=0.0461x elapsed=0:01:03.93    \nframe=  358 fps=5.6 q=47.0 size=     768KiB time=00:00:02.98 bitrate=2108.9kbits/s speed=0.0463x elapsed=0:01:04.43    \nframe=  361 fps=5.6 q=47.0 size=     768KiB time=00:00:03.00 bitrate=2091.3kbits/s speed=0.0463x elapsed=0:01:04.96    \nframe=  364 fps=5.6 q=47.0 size=     768KiB time=00:00:03.03 bitrate=2074.1kbits/s speed=0.0463x elapsed=0:01:05.47    \nframe=  368 fps=5.6 q=47.0 size=     768KiB time=00:00:03.06 bitrate=2051.6kbits/s speed=0.0465x elapsed=0:01:05.99    \nframe=  372 fps=5.6 q=47.0 size=     768KiB time=00:00:03.10 bitrate=2029.5kbits/s speed=0.0466x elapsed=0:01:06.50    \nframe=  373 fps=5.6 q=27.0 size=     768KiB time=00:00:03.10 bitrate=2024.1kbits/s speed=0.0464x elapsed=0:01:07.02    \nframe=  377 fps=5.6 q=46.0 size=     768KiB time=00:00:03.14 bitrate=2002.6kbits/s speed=0.0465x elapsed=0:01:07.54    \nframe=  381 fps=5.6 q=47.0 size=     768KiB time=00:00:03.17 bitrate=1981.6kbits/s speed=0.0467x elapsed=0:01:08.05    \nframe=  384 fps=5.6 q=48.0 size=     768KiB time=00:00:03.20 bitrate=1966.1kbits/s speed=0.0467x elapsed=0:01:08.56    \nframe=  386 fps=5.6 q=47.0 size=    1280KiB time=00:00:03.21 bitrate=3259.8kbits/s speed=0.0466x elapsed=0:01:09.07    \nframe=  390 fps=5.6 q=48.0 size=    1280KiB time=00:00:03.25 bitrate=3226.4kbits/s speed=0.0467x elapsed=0:01:09.60    \nframe=  394 fps=5.6 q=48.0 size=    1280KiB time=00:00:03.28 bitrate=3193.6kbits/s speed=0.0468x elapsed=0:01:10.11    \nframe=  399 fps=5.6 q=48.0 size=    1280KiB time=00:00:03.32 bitrate=3153.6kbits/s speed=0.0471x elapsed=0:01:10.63    \nframe=  402 fps=5.6 q=46.0 size=    1280KiB time=00:00:03.35 bitrate=3130.1kbits/s speed=0.0471x elapsed=0:01:11.15    \nframe=  406 fps=5.7 q=45.0 size=    1280KiB time=00:00:03.38 bitrate=3099.2kbits/s speed=0.0472x elapsed=0:01:11.66    \nframe=  410 fps=5.7 q=45.0 size=    1280KiB time=00:00:03.41 bitrate=3069.0kbits/s speed=0.0473x elapsed=0:01:12.17    \nframe=  414 fps=5.7 q=45.0 size=    1280KiB time=00:00:03.45 bitrate=3039.4kbits/s speed=0.0475x elapsed=0:01:12.68    \nframe=  414 fps=5.7 q=45.0 size=    1280KiB time=00:00:03.45 bitrate=3039.4kbits/s speed=0.0471x elapsed=0:01:13.21    \nframe=  418 fps=5.7 q=44.0 size=    1280KiB time=00:00:03.48 bitrate=3010.3kbits/s speed=0.0472x elapsed=0:01:13.72    \nframe=  422 fps=5.7 q=45.0 size=    1280KiB time=00:00:03.51 bitrate=2981.7kbits/s speed=0.0474x elapsed=0:01:14.24    \nframe=  426 fps=5.7 q=46.0 size=    1280KiB time=00:00:03.55 bitrate=2953.7kbits/s speed=0.0475x elapsed=0:01:14.75    \nframe=  429 fps=5.7 q=46.0 size=    1280KiB time=00:00:03.57 bitrate=2933.1kbits/s speed=0.0475x elapsed=0:01:15.27    \nframe=  431 fps=5.7 q=46.0 size=    1280KiB time=00:00:03.59 bitrate=2919.5kbits/s speed=0.0474x elapsed=0:01:15.79    \nframe=  435 fps=5.7 q=46.0 size=    1280KiB time=00:00:03.62 bitrate=2892.6kbits/s speed=0.0475x elapsed=0:01:16.30    \nframe=  439 fps=5.7 q=47.0 size=    1280KiB time=00:00:03.65 bitrate=2866.3kbits/s speed=0.0476x elapsed=0:01:16.82    \nframe=  443 fps=5.7 q=47.0 size=    1280KiB time=00:00:03.69 bitrate=2840.4kbits/s speed=0.0477x elapsed=0:01:17.34    \nframe=  444 fps=5.7 q=48.0 size=    1280KiB time=00:00:03.70 bitrate=2834.0kbits/s speed=0.0475x elapsed=0:01:17.84    \nframe=  448 fps=5.7 q=47.0 size=    1280KiB time=00:00:03.73 bitrate=2808.7kbits/s speed=0.0476x elapsed=0:01:18.36    \nframe=  452 fps=5.7 q=46.0 size=    1280KiB time=00:00:03.76 bitrate=2783.8kbits/s speed=0.0477x elapsed=0:01:18.88    \nframe=  456 fps=5.7 q=46.0 size=    1280KiB time=00:00:03.80 bitrate=2759.4kbits/s speed=0.0478x elapsed=0:01:19.41    \nframe=  459 fps=5.7 q=45.0 size=    1280KiB time=00:00:03.82 bitrate=2741.4kbits/s speed=0.0479x elapsed=0:01:19.93    \nframe=  461 fps=5.7 q=45.0 size=    1280KiB time=00:00:03.84 bitrate=2729.5kbits/s speed=0.0477x elapsed=0:01:20.46    \nframe=  465 fps=5.7 q=43.0 size=    1280KiB time=00:00:03.87 bitrate=2706.0kbits/s speed=0.0478x elapsed=0:01:21.00    \nframe=  470 fps=5.8 q=43.0 size=    1280KiB time=00:00:03.90 bitrate=2682.9kbits/s speed=0.0479x elapsed=0:01:21.53    \nframe=  474 fps=5.8 q=44.0 size=    1280KiB time=00:00:03.95 bitrate=2654.6kbits/s speed=0.0481x elapsed=0:01:22.12    \nframe=  475 fps=5.7 q=25.0 size=    1280KiB time=00:00:03.95 bitrate=2649.0kbits/s speed=0.0479x elapsed=0:01:22.63    \nframe=  479 fps=5.8 q=43.0 size=    1280KiB time=00:00:03.99 bitrate=2626.9kbits/s speed=0.048x elapsed=0:01:23.16    \nframe=  483 fps=5.8 q=44.0 size=    1280KiB time=00:00:04.02 bitrate=2605.2kbits/s speed=0.0481x elapsed=0:01:23.67    \nframe=  487 fps=5.8 q=45.0 size=    1280KiB time=00:00:04.05 bitrate=2583.8kbits/s speed=0.0482x elapsed=0:01:24.24    \nframe=  489 fps=5.8 q=45.0 size=    1280KiB time=00:00:04.07 bitrate=2573.2kbits/s speed=0.0481x elapsed=0:01:24.75    \nframe=  493 fps=5.8 q=46.0 size=    1280KiB time=00:00:04.10 bitrate=2552.3kbits/s speed=0.0482x elapsed=0:01:25.29    \nframe=  497 fps=5.8 q=47.0 size=    1280KiB time=00:00:04.14 bitrate=2531.8kbits/s speed=0.0483x elapsed=0:01:25.83    \nframe=  500 fps=5.8 q=47.0 size=    1280KiB time=00:00:04.16 bitrate=2516.6kbits/s speed=0.0482x elapsed=0:01:26.36    \nframe=  504 fps=5.8 q=43.0 size=    1280KiB time=00:00:04.20 bitrate=2496.6kbits/s speed=0.0483x elapsed=0:01:26.95    \nframe=  508 fps=5.8 q=43.0 size=    1280KiB time=00:00:04.23 bitrate=2477.0kbits/s speed=0.0484x elapsed=0:01:27.47    \nframe=  512 fps=5.8 q=43.0 size=    1280KiB time=00:00:04.26 bitrate=2457.6kbits/s speed=0.0485x elapsed=0:01:28.02    \nframe=  515 fps=5.8 q=42.0 size=    1792KiB time=00:00:04.29 bitrate=3420.6kbits/s speed=0.0484x elapsed=0:01:28.59    \nframe=  519 fps=5.8 q=44.0 size=    1792KiB time=00:00:04.32 bitrate=3394.2kbits/s speed=0.0485x elapsed=0:01:29.17    \nframe=  523 fps=5.8 q=44.0 size=    1792KiB time=00:00:04.35 bitrate=3368.3kbits/s speed=0.0486x elapsed=0:01:29.76    \nframe=  527 fps=5.8 q=43.0 size=    1792KiB time=00:00:04.39 bitrate=3342.7kbits/s speed=0.0486x elapsed=0:01:30.30    \nframe=  529 fps=5.8 q=44.0 size=    1792KiB time=00:00:04.40 bitrate=3330.1kbits/s speed=0.0485x elapsed=0:01:30.84    \nframe=  534 fps=5.8 q=43.0 size=    1792KiB time=00:00:04.45 bitrate=3298.9kbits/s speed=0.0487x elapsed=0:01:31.36    \nframe=  538 fps=5.9 q=43.0 size=    1792KiB time=00:00:04.47 bitrate=3280.5kbits/s speed=0.0487x elapsed=0:01:31.87    \nframe=  542 fps=5.9 q=43.0 size=    1792KiB time=00:00:04.51 bitrate=3250.2kbits/s speed=0.0489x elapsed=0:01:32.43    \nframe=  543 fps=5.8 q=25.0 size=    1792KiB time=00:00:04.52 bitrate=3244.2kbits/s speed=0.0487x elapsed=0:01:32.95    \nframe=  547 fps=5.9 q=42.0 size=    1792KiB time=00:00:04.55 bitrate=3220.5kbits/s speed=0.0488x elapsed=0:01:33.48    \nframe=  551 fps=5.9 q=42.0 size=    1792KiB time=00:00:04.59 bitrate=3197.1kbits/s speed=0.0488x elapsed=0:01:34.02    \nframe=  555 fps=5.9 q=43.0 size=    1792KiB time=00:00:04.62 bitrate=3174.1kbits/s speed=0.0489x elapsed=0:01:34.57    \nframe=  557 fps=5.9 q=44.0 size=    1792KiB time=00:00:04.64 bitrate=3162.7kbits/s speed=0.0488x elapsed=0:01:35.10    \nframe=  560 fps=5.9 q=43.0 size=    1792KiB time=00:00:04.65 bitrate=3151.4kbits/s speed=0.0487x elapsed=0:01:35.69    \nframe=  563 fps=5.8 q=43.0 size=    1792KiB time=00:00:04.69 bitrate=3129.0kbits/s speed=0.0487x elapsed=0:01:36.27    \nframe=  567 fps=5.9 q=44.0 size=    1792KiB time=00:00:04.72 bitrate=3106.9kbits/s speed=0.0488x elapsed=0:01:36.82    \nframe=  572 fps=5.9 q=44.0 size=    1792KiB time=00:00:04.76 bitrate=3079.7kbits/s speed=0.049x elapsed=0:01:37.36    \nframe=  573 fps=5.9 q=25.0 size=    1792KiB time=00:00:04.77 bitrate=3074.4kbits/s speed=0.0488x elapsed=0:01:37.94    \nframe=  576 fps=5.8 q=43.0 size=    1792KiB time=00:00:04.80 bitrate=3058.3kbits/s speed=0.0487x elapsed=0:01:38.46    \nframe=  576 fps=5.8 q=43.0 size=    1792KiB time=00:00:04.80 bitrate=3058.3kbits/s speed=0.0485x elapsed=0:01:38.98    \nframe=  576 fps=5.8 q=43.0 size=    1792KiB time=00:00:04.80 bitrate=3058.3kbits/s speed=0.0482x elapsed=0:01:39.54    \nframe=  576 fps=5.8 q=43.0 size=    1792KiB time=00:00:04.80 bitrate=3058.3kbits/s speed=0.048x elapsed=0:01:40.06    \nframe=  576 fps=5.7 q=43.0 size=    1792KiB time=00:00:04.80 bitrate=3058.3kbits/s speed=0.0477x elapsed=0:01:40.58    \nframe=  576 fps=5.7 q=43.0 size=    1792KiB time=00:00:04.80 bitrate=3058.3kbits/s speed=0.0475x elapsed=0:01:41.12    \nframe=  576 fps=5.7 q=43.0 size=    1792KiB time=00:00:04.80 bitrate=3058.3kbits/s speed=0.0472x elapsed=0:01:41.66    \n[out#0/webm @ 00000151c71b9b80] video:2411KiB audio:0KiB subtitle:0KiB other streams:0KiB global headers:0KiB muxing overhead: 0.197154%\nframe=  600 fps=5.9 q=44.0 Lsize=    2416KiB time=00:00:05.00 bitrate=3958.4kbits/s speed=0.0491x elapsed=0:01:41.75    \n",
  "seconds": 102.071448802948,
  "probe_out": {}
}